<?xml version="1.0" encoding="UTF-8" standalone="no"?>
<svg
   xmlns:dc="http://purl.org/dc/elements/1.1/"
   xmlns:cc="http://creativecommons.org/ns#"
   xmlns:rdf="http://www.w3.org/1999/02/22-rdf-syntax-ns#"
   xmlns:svg="http://www.w3.org/2000/svg"
   xmlns="http://www.w3.org/2000/svg"
   xmlns:sodipodi="http://sodipodi.sourceforge.net/DTD/sodipodi-0.dtd"
   xmlns:inkscape="http://www.inkscape.org/namespaces/inkscape"
   height="24"
   viewBox="0 0 24.000001 24.000001"
   width="24"
   version="1.1"
   id="svg839"
   sodipodi:docname="info.svg"
   inkscape:version="1.0.2-2 (e86c870879, 2021-01-15)">
  <metadata
     id="metadata845">
    <rdf:RDF>
      <cc:Work
         rdf:about="">
        <dc:format>image/svg+xml</dc:format>
        <dc:type
           rdf:resource="http://purl.org/dc/dcmitype/StillImage" />
      </cc:Work>
    </rdf:RDF>
  </metadata>
  <defs
     id="defs843" />
  <sodipodi:namedview
     pagecolor="#ffffff"
     bordercolor="#666666"
     borderopacity="1"
     objecttolerance="10"
     gridtolerance="10"
     guidetolerance="10"
     inkscape:pageopacity="0"
     inkscape:pageshadow="2"
     inkscape:window-width="1685"
     inkscape:window-height="1008"
     id="namedview841"
     showgrid="false"
     inkscape:zoom="28.458333"
     inkscape:cx="12"
     inkscape:cy="12"
     inkscape:window-x="0"
     inkscape:window-y="0"
     inkscape:window-maximized="0"
     inkscape:current-layer="svg839" />
  <path
     d="m.04748073 12.036694 6.45007827 2.302326-2.93903 6.20642 6.1828614-2.950075 2.2937486 6.473969 2.293749-6.473969 6.182862 2.950075-2.939031-6.20642 6.450078-2.302326-6.450078-2.3023244 2.939031-6.2064202-6.182862 2.9500739-2.293749-6.4748487-2.2937486 6.4748487-6.1828614-2.9500739 2.93903 6.2064202z"
     fill="#db6400"
     id="path833" />
  <circle
     cx="12.051065"
     cy="12.243792"
     fill="#ffbf00"
     fill-rule="evenodd"
     r="4.932564"
     id="circle835" />
  <path
     d="m 16.682886,13.006384 q -0.381908,0 -0.774142,-0.12501 -0.381908,-0.125011 -0.701887,-0.339311 -0.309657,-0.214302 -0.505772,-0.500037 -0.196117,-0.294666 -0.196117,-0.633977 0,-0.357169 0.175478,-0.633975 0.18579,-0.276807 0.485129,-0.455392 0.299335,-0.187513 0.691563,-0.276805 0.392233,-0.09822 0.825752,-0.09822 0.505772,0 0.918647,0.0893 0.412875,0.08036 0.71221,0.250018 0.299335,0.160727 0.464484,0.419674 0.165145,0.250018 0.165145,0.58933 0,0.366098 -0.196113,0.678621 -0.18579,0.312525 -0.505773,0.544684 -0.309657,0.223231 -0.722532,0.357169 -0.402552,0.133938 -0.836071,0.133938 z m -3.581692,10.17933 1.682467,-0.526823 q 0.185788,-0.06251 0.299332,-0.142865 0.113541,-0.08927 0.113541,-0.267877 v -5.929012 q 0,-0.178585 -0.123856,-0.267877 -0.113541,-0.0893 -0.278693,-0.142866 L 13.121844,15.336923 V 14.488647 L 18.59244,14.31006 v 7.938094 q 0,0.178584 0.123842,0.276806 0.12387,0.08928 0.268371,0.133938 l 1.682464,0.526824 v 0.82149 h -7.565923 z"
     stroke-width="1.38642"
     id="path837" />
</svg>
